<svg width="40" height="40" viewBox="0 0 40 40" fill="none" xmlns="http://www.w3.org/2000/svg">
<path d="M9.44434 33.8892V31.667C9.44434 28.8925 12.2266 26.667 14.9999 26.667C18.3332 29.4448 21.6666 29.4448 24.9999 26.667C27.7743 26.667 30.5554 28.8925 30.5554 31.667V33.8892" fill="#92D3F5"/>
<path d="M14.4444 21.667C12.2222 21.667 12.2222 18.3337 12.2222 14.4448C12.2222 10.5559 14.4444 6.66699 19.9999 6.66699C25.5555 6.66699 27.7777 10.5559 27.7777 14.4448C27.7777 18.3337 27.7777 21.667 25.5555 21.667" fill="#F1B31C"/>
<path d="M13.8535 17.2222C13.8535 22.2222 16.5963 25 19.9646 25C23.263 25 26.1113 22.2222 26.1113 17.2222C26.1113 15.5556 25.5557 14.4444 25.5557 14.4444C23.8891 12.7778 21.6668 10 21.6668 10C19.4446 11.6667 17.778 13.3333 14.4446 13.8889C14.4446 13.8889 13.8535 14.4444 13.8535 17.2222Z" fill="#FCEA2B"/>
<path d="M14.4443 21.667C12.2221 21.667 12.2221 18.3337 12.2221 14.4448C12.2221 10.5559 14.4443 6.66699 19.9999 6.66699C25.5554 6.66699 27.7777 10.5559 27.7777 14.4448C27.7777 18.3337 27.7777 21.667 25.5554 21.667M9.44434 33.3337V31.667C9.44434 28.8925 12.2266 26.667 14.9999 26.667C18.3332 29.4448 21.6666 29.4448 24.9999 26.667C27.7743 26.667 30.5554 28.8925 30.5554 31.667V33.3337" stroke="black" stroke-width="2" stroke-linecap="round" stroke-linejoin="round"/>
<path d="M23.2629 16.6668C23.2629 16.9615 23.1458 17.2441 22.9374 17.4525C22.729 17.6608 22.4464 17.7779 22.1517 17.7779C21.8571 17.7779 21.5744 17.6608 21.3661 17.4525C21.1577 17.2441 21.0406 16.9615 21.0406 16.6668C21.0406 16.3721 21.1577 16.0895 21.3661 15.8811C21.5744 15.6727 21.8571 15.5557 22.1517 15.5557C22.4464 15.5557 22.729 15.6727 22.9374 15.8811C23.1458 16.0895 23.2629 16.3721 23.2629 16.6668ZM18.8184 16.6668C18.8184 16.9615 18.7014 17.2441 18.493 17.4525C18.2846 17.6608 18.002 17.7779 17.7073 17.7779C17.4126 17.7779 17.13 17.6608 16.9216 17.4525C16.7133 17.2441 16.5962 16.9615 16.5962 16.6668C16.5962 16.3721 16.7133 16.0895 16.9216 15.8811C17.13 15.6727 17.4126 15.5557 17.7073 15.5557C18.002 15.5557 18.2846 15.6727 18.493 15.8811C18.7014 16.0895 18.8184 16.3721 18.8184 16.6668Z" fill="black"/>
<path d="M13.8535 17.2222C13.8535 22.2222 16.5963 25 19.9646 25C23.263 25 26.1113 22.2222 26.1113 17.2222C26.1113 15.5556 25.5557 14.4444 25.5557 14.4444C23.8891 12.7778 21.6668 10 21.6668 10C19.4446 11.6667 17.778 13.3333 14.4446 13.8889C14.4446 13.8889 13.8535 14.4444 13.8535 17.2222Z" stroke="black" stroke-width="2" stroke-linejoin="round"/>
</svg>
